<?xml version="1.0" encoding="utf-8"?>
<!-- Generator: Adobe Illustrator 22.0.1, SVG Export Plug-In . SVG Version: 6.00 Build 0)  -->
<svg version="1.1" id="Ebene_1" xmlns="http://www.w3.org/2000/svg" xmlns:xlink="http://www.w3.org/1999/xlink" x="0px" y="0px"
	 viewBox="0 0 244.9 210.1" style="enable-background:new 0 0 244.9 210.1;" xml:space="preserve">
<style type="text/css">
	.st0{fill:#028EC9;}
	.st1{fill:#FFFFFF;}
	.st2{fill:#2B347D;}
</style>
<g>
	<path class="st0" d="M82,135.8c-2.4,0-4.5,0.9-6.1,2.5c-2.5,2.5-2.7,6.6-2.7,10.4c0,3.8,0.3,7.9,2.7,10.4c1.6,1.6,3.7,2.5,6.1,2.5
		c2.4,0,4.6-0.9,6.1-2.5c2.5-2.5,2.7-6.6,2.7-10.4c0-3.8-0.2-7.9-2.7-10.4C86.5,136.7,84.4,135.8,82,135.8z"/>
	<path class="st0" d="M136.5,82.9c-7.3,0-8.4,6.3-8.4,12.6c0,6.3,1.1,12.6,8.4,12.6s8.3-6.3,8.3-12.6
		C144.8,89.1,143.8,82.9,136.5,82.9z"/>
	<path class="st0" d="M87.1,87.7c-1.3-3.1-4.3-5.1-7.9-5.1c-3.6,0-6.6,2-7.9,5.1c-0.8,1.8-0.9,2.9-1,5.6h17.8
		C88,90.6,87.9,89.5,87.1,87.7z"/>
	<path class="st0" d="M17.6,87.7c-1.3-3.1-4.3-5.1-7.9-5.1c-3.6,0-6.6,2-7.9,5.1c-0.8,1.8-0.9,2.9-1,5.6h17.8
		C18.5,90.6,18.3,89.5,17.6,87.7z"/>
	<path class="st0" d="M176.7,64.3c0,3.9,2.4,5.7,7.7,5.7c2.9,0,5.4-0.2,7.5-2.3c1.2-1.1,1.7-3,1.7-5.8v-3.6h-9.4
		C179.2,58.3,176.7,60.4,176.7,64.3z"/>
	<path class="st0" d="M198.6,57.1v16.7h-4.9v-3.2c-2.7,2.7-5.2,3.6-9.7,3.6c-4.6,0-7.4-0.9-9.5-3.1c-1.6-1.6-2.5-4.2-2.5-6.8
		c0-5.9,4.1-9.7,11.6-9.7h10.1v-3.2c0-4.9-2.5-7.4-8.6-7.4c-4.3,0-6.5,1-8.5,3.8l-3.3-3.1c3-3.9,6.4-5,11.9-5c0.8,0,1.6,0,2.4,0.1
		C168.2,15.6,138.5,0,105.1,0C55.7,0,14.2,34.2,3,80.2c1.9-1.1,4.2-1.7,6.7-1.7c8.7,0,13.8,6.3,13.8,16.3V97H0.9
		c0,7.4,3.5,11.6,9.9,11.6c3.9,0,6.1-1.2,8.8-3.8l3.3,2.9c-3.4,3.4-6.6,5.2-12.3,5.2c-4.4,0-8-1.3-10.5-4
		c2,56.2,48.3,101.2,105,101.2c35.8,0,67.4-17.9,86.4-45.3c-1.9,0.7-4.2,1-6.6,1c-5.7,0-10.1-1.3-13.8-4.8l3.3-3.3
		c2.7,2.8,6.3,3.9,10.5,3.9c5.5,0,8.9-2,8.9-5.9c0-2.9-1.7-4.6-5.6-4.9l-5.5-0.5c-6.6-0.5-10-3.5-10-9c0-6.1,5.2-9.8,12.4-9.8
		c4.8,0,9.1,1.2,12.1,3.6l-3.2,3.2c-2.4-1.8-5.5-2.7-8.9-2.7c-4.9,0-7.5,2.1-7.5,5.5c0,2.9,1.6,4.6,5.9,4.9l5.4,0.5
		c5.2,0.5,8.9,2.3,9.7,7c7.5-14.5,11.8-31,11.8-48.4C210.1,87.8,205.9,71.5,198.6,57.1z M116.4,40.2h4.9v3.7
		c2.4-2.7,5.7-4.1,9.5-4.1c4.6,0,8.3,1.9,10.3,5.6c2.6-3.7,6.4-5.6,11.1-5.6c3.6,0,6.6,1.2,8.7,3.1c2.4,2.3,3.6,5.5,3.6,9.4v21.5
		h-4.9V53.2c0-5.9-3.2-8.9-8.3-8.9c-4.9,0-8.4,3.1-8.4,8.4v21.2h-4.9V53.2c0-5.9-3.2-8.9-8.3-8.9c-5.1,0-8.4,3.1-8.4,8.9v20.7h-4.9
		V40.2z M164.4,78.9v33.6h-4.9V78.9H164.4z M82.2,25.2h4.9v39.5c0,3.3,1.1,4.9,4.5,4.9h2.7v4.2h-3.6c-5.9,0-8.5-3.8-8.5-8.9V25.2z
		 M93.1,94.7V97H70.4c0,7.4,3.5,11.6,9.9,11.6c3.9,0,6.1-1.2,8.8-3.8l3.3,2.9c-3.4,3.4-6.6,5.2-12.3,5.2c-8.9,0-14.7-5.3-14.7-17.2
		c0-10.9,5.3-17.2,13.8-17.2C87.9,78.5,93.1,84.8,93.1,94.7z M48.3,25.2h4.9v32.5l15.2-17.5h6.1L63.1,53.1l13.4,20.8h-6.1L59.7,56.6
		l-6.6,7.5v9.7h-4.9V25.2z M44.7,82.9c-5.1,0-8.3,3.1-8.3,8.9v20.7h-4.9V78.9h4.9v3.7c2.4-2.7,5.7-4.1,9.4-4.1
		c3.6,0,6.6,1.1,8.6,3.1c2.4,2.3,3.5,5.5,3.5,9.4v21.5H53V91.8C53,85.9,49.8,82.9,44.7,82.9z M67.9,120.9h-2.7
		c-3.1,0-4.5,1.8-4.5,4.9v6.2h7.2v3.8h-7.2v29.6h-4.9v-29.6h-4.3V132h4.3v-6.4c0-5,2.8-9,8.5-9h3.6V120.9z M91.6,162
		c-2.3,2.3-5.5,3.8-9.6,3.8c-4.1,0-7.3-1.5-9.6-3.8c-3.4-3.5-4.1-8.2-4.1-13.4c0-5.2,0.7-9.9,4.1-13.4c2.3-2.3,5.5-3.8,9.6-3.8
		c4.1,0,7.3,1.5,9.6,3.8c3.4,3.5,4.1,8.2,4.1,13.4C95.7,153.8,95,158.5,91.6,162z M100.6,25.2h5.5v5.5h-5.5V25.2z M100.9,40.2h4.9
		v33.6h-4.9V40.2z M101,78.9h4.9V83c1.8-2.8,5.5-4.5,9.4-4.5c3.2,0,5.7,0.8,8.1,3.1l-3.6,3.7c-1.8-1.8-3.2-2.5-5.8-2.5
		c-4.9,0-8.1,3.9-8.1,9v20.6H101V78.9z M130.1,165.4h-4.9v-20.7c0-5.9-3.2-8.9-8.3-8.9c-5.1,0-8.3,3.1-8.3,8.9v20.7h-4.9v-33.6h4.9
		v3.7c2.4-2.7,5.7-4.1,9.4-4.1c3.6,0,6.6,1.1,8.6,3.1c2.4,2.3,3.5,5.5,3.5,9.4V165.4z M124.3,123.4l3.2-3.1c2.5,2.2,4.2,3.3,8.1,3.3
		c6.5,0,9.2-4.6,9.2-10.3v-5.3c-2.7,3.5-5.8,4.4-9.4,4.4c-3.4,0-6.4-1.2-8.1-3c-3.3-3.3-4.1-8.5-4.1-14c0-5.5,0.8-10.7,4.1-14
		c1.8-1.8,4.8-2.9,8.2-2.9c3.7,0,6.7,0.8,9.4,4.4v-4h4.8v34.6c0,8.3-5.2,14.4-14,14.4C130.7,127.9,127.9,126.6,124.3,123.4z
		 M164.5,165.4h-4.8v-4c-2.7,3.6-5.9,4.4-9.6,4.4c-3.4,0-6.4-1.2-8.2-2.9c-3.4-3.4-4.1-9-4.1-14.3c0-5.3,0.7-10.9,4.1-14.3
		c1.8-1.8,4.8-2.9,8.2-2.9c3.7,0,6.8,0.8,9.5,4.3v-18.9h4.9V165.4z M187.2,108.6c3.9,0,6.1-1.2,8.8-3.8l3.3,2.9
		c-3.4,3.4-6.6,5.2-12.3,5.2c-8.9,0-14.7-5.3-14.7-17.2c0-10.9,5.3-17.2,13.8-17.2c8.7,0,13.8,6.3,13.8,16.3V97h-22.7
		C177.3,104.4,180.8,108.6,187.2,108.6z"/>
	<path class="st0" d="M186.2,82.6c-3.6,0-6.6,2-7.9,5.1c-0.8,1.8-0.9,2.9-1,5.6h17.8c-0.1-2.7-0.3-3.8-1-5.6
		C192.8,84.6,189.8,82.6,186.2,82.6z"/>
	<path class="st0" d="M151.1,135.8c-7.3,0-8.5,6.3-8.5,12.8c0,6.6,1.2,12.8,8.5,12.8s8.4-6.3,8.4-12.8
		C159.5,142.1,158.5,135.8,151.1,135.8z"/>
	<polygon class="st1" points="53.2,64.1 59.7,56.6 70.4,73.8 76.5,73.8 63.1,53.1 74.5,40.2 68.3,40.2 53.2,57.7 53.2,25.2 
		48.3,25.2 48.3,73.8 53.2,73.8 	"/>
	<path class="st1" d="M90.8,73.8h3.6v-4.2h-2.7c-3.4,0-4.5-1.6-4.5-4.9V25.2h-4.9v39.7C82.2,70,84.9,73.8,90.8,73.8z"/>
	<rect x="100.6" y="25.2" class="st1" width="5.5" height="5.5"/>
	<rect x="100.9" y="40.2" class="st1" width="4.9" height="33.6"/>
	<path class="st1" d="M121.3,53.2c0-5.9,3.3-8.9,8.4-8.9c5.1,0,8.3,3,8.3,8.9v20.7h4.9V52.6c0-5.3,3.5-8.4,8.4-8.4
		c5.1,0,8.3,3,8.3,8.9v20.7h4.9V52.3c0-3.9-1.2-7-3.6-9.4c-2-2-5.1-3.1-8.7-3.1c-4.7,0-8.5,1.9-11.1,5.6c-2-3.7-5.7-5.6-10.3-5.6
		c-3.8,0-7.1,1.4-9.5,4.1v-3.7h-4.9v33.6h4.9V53.2z"/>
	<path class="st1" d="M173.2,44.8l3.3,3.1c2-2.8,4.2-3.8,8.5-3.8c6.1,0,8.6,2.5,8.6,7.4v3.2h-10.1c-7.5,0-11.6,3.8-11.6,9.7
		c0,2.7,0.9,5.2,2.5,6.8c2.1,2.2,4.8,3.1,9.5,3.1c4.5,0,7-0.9,9.7-3.6v3.2h4.9V57.1c-3.1-6.1-6.9-11.9-11.1-17.2
		c-0.8-0.1-1.5-0.1-2.4-0.1C179.6,39.8,176.2,40.9,173.2,44.8z M193.6,62c0,2.8-0.5,4.7-1.7,5.8c-2.1,2-4.6,2.3-7.5,2.3
		c-5.3,0-7.7-1.8-7.7-5.7c0-3.9,2.5-5.9,7.5-5.9h9.4V62z"/>
	<path class="st1" d="M22.9,107.7l-3.3-2.9c-2.7,2.7-4.9,3.8-8.8,3.8c-6.4,0-9.9-4.2-9.9-11.6h22.7v-2.3c0-10-5.1-16.3-13.8-16.3
		c-2.6,0-4.8,0.6-6.7,1.7c-1.9,8-3,16.3-3,24.9c0,1.3,0,2.6,0.1,3.8c2.6,2.7,6.2,4,10.5,4C16.4,112.9,19.5,111.1,22.9,107.7z
		 M1.9,87.7c1.3-3.1,4.3-5.1,7.9-5.1c3.6,0,6.6,2,7.9,5.1c0.8,1.8,0.9,2.9,1,5.6H0.9C1,90.6,1.1,89.5,1.9,87.7z"/>
	<path class="st1" d="M53,112.5h4.9V91c0-3.9-1.1-7-3.5-9.4c-2-2-5-3.1-8.6-3.1c-3.8,0-7,1.4-9.4,4.1v-3.7h-4.9v33.6h4.9V91.8
		c0-5.9,3.3-8.9,8.3-8.9c5.1,0,8.3,3,8.3,8.9V112.5z"/>
	<path class="st1" d="M65.5,95.7c0,11.9,5.8,17.2,14.7,17.2c5.7,0,8.9-1.8,12.3-5.2l-3.3-2.9c-2.7,2.7-4.9,3.8-8.8,3.8
		c-6.4,0-9.9-4.2-9.9-11.6h22.7v-2.3c0-10-5.1-16.3-13.8-16.3C70.7,78.5,65.5,84.8,65.5,95.7z M71.4,87.7c1.3-3.1,4.3-5.1,7.9-5.1
		c3.6,0,6.6,2,7.9,5.1c0.8,1.8,0.9,2.9,1,5.6H70.4C70.5,90.6,70.7,89.5,71.4,87.7z"/>
	<path class="st1" d="M105.9,91.9c0-5.1,3.1-9,8.1-9c2.6,0,4,0.6,5.8,2.5l3.6-3.7c-2.4-2.4-4.8-3.1-8.1-3.1c-3.9,0-7.6,1.7-9.4,4.5
		v-4.1H101v33.6h4.9V91.9z"/>
	<path class="st1" d="M149.7,113.5V78.9h-4.8v4c-2.7-3.6-5.7-4.4-9.4-4.4c-3.4,0-6.4,1.2-8.2,2.9c-3.3,3.3-4.1,8.5-4.1,14
		c0,5.5,0.8,10.7,4.1,14c1.8,1.8,4.7,3,8.1,3c3.6,0,6.7-0.9,9.4-4.4v5.3c0,5.7-2.7,10.3-9.2,10.3c-3.9,0-5.6-1.2-8.1-3.3l-3.2,3.1
		c3.6,3.2,6.4,4.5,11.4,4.5C144.6,127.9,149.7,121.9,149.7,113.5z M136.5,108c-7.3,0-8.4-6.3-8.4-12.6c0-6.3,1.1-12.6,8.4-12.6
		s8.3,6.3,8.3,12.6C144.8,101.7,143.8,108,136.5,108z"/>
	<rect x="159.5" y="78.9" class="st1" width="4.9" height="33.6"/>
	<path class="st1" d="M200,94.7c0-10-5.1-16.3-13.8-16.3c-8.5,0-13.8,6.4-13.8,17.2c0,11.9,5.8,17.2,14.7,17.2
		c5.7,0,8.9-1.8,12.3-5.2l-3.3-2.9c-2.7,2.7-4.9,3.8-8.8,3.8c-6.4,0-9.9-4.2-9.9-11.6H200V94.7z M177.3,93.3c0.1-2.7,0.3-3.8,1-5.6
		c1.3-3.1,4.3-5.1,7.9-5.1c3.6,0,6.6,2,7.9,5.1c0.8,1.8,0.9,2.9,1,5.6H177.3z"/>
	<path class="st1" d="M55.8,125.7v6.4h-4.3v3.8h4.3v29.6h4.9v-29.6h7.2V132h-7.2v-6.2c0-3.1,1.4-4.9,4.5-4.9h2.7v-4.2h-3.6
		C58.6,116.7,55.8,120.7,55.8,125.7z"/>
	<path class="st1" d="M82,131.4c-4.1,0-7.3,1.5-9.6,3.8c-3.4,3.5-4.1,8.2-4.1,13.4c0,5.2,0.7,9.9,4.1,13.4c2.3,2.3,5.5,3.8,9.6,3.8
		c4.1,0,7.3-1.5,9.6-3.8c3.4-3.5,4.1-8.2,4.1-13.4c0-5.2-0.7-9.9-4.1-13.4C89.3,132.9,86.1,131.4,82,131.4z M88.1,159
		c-1.6,1.6-3.8,2.5-6.1,2.5c-2.4,0-4.5-0.9-6.1-2.5c-2.5-2.5-2.7-6.6-2.7-10.4c0-3.8,0.3-7.9,2.7-10.4c1.6-1.6,3.7-2.5,6.1-2.5
		c2.4,0,4.6,0.9,6.1,2.5c2.5,2.5,2.7,6.6,2.7,10.4C90.8,152.4,90.6,156.6,88.1,159z"/>
	<path class="st1" d="M118,131.4c-3.8,0-7,1.4-9.4,4.1v-3.7h-4.9v33.6h4.9v-20.7c0-5.9,3.3-8.9,8.3-8.9c5.1,0,8.3,3,8.3,8.9v20.7
		h4.9v-21.5c0-3.9-1.1-7-3.5-9.4C124.6,132.5,121.6,131.4,118,131.4z"/>
	<path class="st1" d="M159.5,135.7c-2.7-3.5-5.8-4.3-9.5-4.3c-3.4,0-6.4,1.2-8.2,2.9c-3.4,3.4-4.1,9-4.1,14.3
		c0,5.3,0.7,10.9,4.1,14.3c1.8,1.8,4.8,2.9,8.2,2.9c3.7,0,6.8-0.9,9.6-4.4v4h4.8v-48.6h-4.9V135.7z M151.1,161.5
		c-7.3,0-8.5-6.3-8.5-12.8c0-6.6,1.2-12.8,8.5-12.8s8.4,6.3,8.4,12.8C159.5,155.2,158.5,161.5,151.1,161.5z"/>
	<path class="st1" d="M188.6,146.5l-5.4-0.5c-4.2-0.3-5.9-2-5.9-4.9c0-3.4,2.6-5.5,7.5-5.5c3.5,0,6.6,0.8,8.9,2.7l3.2-3.2
		c-3-2.5-7.3-3.6-12.1-3.6c-7.2,0-12.4,3.7-12.4,9.8c0,5.5,3.5,8.5,10,9l5.5,0.5c3.9,0.3,5.6,2,5.6,4.9c0,4-3.4,5.9-8.9,5.9
		c-4.2,0-7.8-1.1-10.5-3.9L171,161c3.7,3.6,8.1,4.8,13.8,4.8c2.5,0,4.7-0.4,6.6-1c2.5-3.6,4.8-7.4,6.8-11.3
		C197.5,148.8,193.7,147,188.6,146.5z"/>
	<polygon class="st2" points="230.7,54.3 230.7,40.1 225.2,40.1 225.2,54.3 210.8,54.3 210.8,59.7 225.2,59.7 225.2,74.1 
		230.7,74.1 230.7,59.7 244.9,59.7 244.9,54.3 	"/>
</g>
</svg>
